PathFileType	4	(X/Y/Z)	C:\Users\WrightLab\Desktop\Jo\P3_27.trc
DataRate	CameraRate	NumFrames	NumMarkers	Units	OrigDataRate	OrigDataStartFrame	OrigNumFrames
100.00	100.00	       15	19	mm	100.00	69	       549
Frame#	Time	Headset_Front			Headset_Back			Headset_Left			Headset_Right			Left_Shoulder			Right_Shoulder			Sternum			C7			Left Elbow			Right Elbow			Left Wrist			Right Wrist			Left ASIS			Right ASIS			S2			Left Knee			Right Knee			Left Ankle			Right Ankle			
		X1	Y1	Z1	X2	Y2	Z2	X3	Y3	Z3	X4	Y4	Z4	X5	Y5	Z5	X6	Y6	Z6	X7	Y7	Z7	X8	Y8	Z8	X9	Y9	Z9	X10	Y10	Z10	X11	Y11	Z11	X12	Y12	Z12	X13	Y13	Z13	X14	Y14	Z14	X15	Y15	Z15	X16	Y16	Z16	X17	Y17	Z17	X18	Y18	Z18	X19	Y19	Z19	

69	0.680	-19.93783	1443.61145	1299.84375	62.39175	1655.73633	1496.00952	-71.50642	1567.92334	1457.37842				-115.39516	1364.10962	1534.28784	238.10925	1381.95715	1544.30701	57.22185	1248.11377	1417.06396	59.96283	1428.88733	1588.63416	-265.45584	1073.34058	1475.00635	357.00919	1048.03772	1571.84924	-325.02991	951.11542	1322.33801	358.41980	878.13232	1422.92480	-37.99788	878.72308	1468.63550				86.26973	974.33435	1667.72461	-48.05682	470.10748	1427.31409	207.63129	479.15515	1456.24658	-4.53971	270.49481	1689.31750	207.83148	147.46771	1525.79016	
70	0.690	-21.34368	1443.10901	1290.31470	61.88276	1656.42102	1487.09155	-71.26458	1567.67700	1448.37451	110.70128	1513.80627	1326.01196	-114.63902	1364.52405	1526.05164	238.50684	1382.08630	1534.02148	57.60162	1248.74304	1408.87683	61.06027	1429.17505	1578.60645	-264.86615	1073.95044	1468.96313	358.39240	1048.79395	1560.91638	-325.56912	951.02795	1317.16785	358.86792	878.34167	1410.86816	-38.42245	880.43652	1460.56616				87.50922	974.83527	1658.95300	-47.00847	473.44012	1409.98804	208.54559	479.38895	1452.33472	-1.74878	265.19583	1664.38623	208.49599	147.69255	1524.84595	
71	0.700	-21.11101	1443.27075	1283.10278	61.65531	1656.40271	1478.00586	-71.41709	1567.64880	1439.36841	110.24939	1513.40894	1316.27124	-114.33030	1365.14233	1518.27173	239.13925	1382.48108	1524.37732	56.78009	1248.15466	1401.68994	62.01494	1429.70605	1569.79895	-264.35971	1073.42664	1463.69971	359.50552	1048.99585	1549.55908	-325.57599	950.47302	1311.46069	359.07880	879.36401	1398.16528	-37.60480	881.11096	1454.27258				88.22858	976.69775	1652.00781	-47.02386	477.22223	1393.11145	209.06821	479.08374	1449.61499	0.02901	258.13742	1638.98376	208.29553	147.81490	1524.39136	
72	0.710	-23.26782	1442.12903	1272.72644	61.98859	1656.87744	1466.61255	-71.84100	1567.44434	1430.06714	108.20268	1512.29016	1307.00208	-113.86852	1365.69360	1510.65796	239.66701	1382.85718	1513.70996	55.91277	1248.42981	1392.19238	62.64807	1430.49231	1561.64771	-264.10675	1075.12170	1462.26172	361.33600	1050.13184	1537.61194	-328.00803	949.90967	1309.02991	358.49152	880.21198	1384.19568	-35.66312	884.26648	1441.62756				90.06506	976.27045	1641.90442	-47.15080	480.77139	1376.89844	209.46138	478.51102	1446.48425	1.80255	250.11470	1612.60254	208.23740	147.87933	1524.27869	
73	0.720	-23.10827	1442.26660	1265.79419	61.57476	1657.22217	1457.13513	-72.19563	1567.57129	1422.37366	107.68286	1512.07434	1297.10962	-113.50597	1366.26477	1503.40002	239.96028	1383.19128	1503.94763	56.02760	1249.07043	1383.66394	63.39791	1430.58630	1551.73547	-263.35950	1075.04065	1456.98853	361.46320	1050.35229	1526.38403	-328.47275	949.43994	1305.34070	359.08090	881.42340	1373.54199	-35.30980	884.91907	1435.50513				90.93337	977.51984	1634.50720	-47.36766	484.40314	1361.49939	209.39162	477.98074	1442.83704	3.88884	241.71815	1588.44141	207.79784	148.41995	1523.48083	
74	0.730	-24.47694	1440.83545	1256.67224	61.28884	1657.36462	1447.47998	-72.37229	1567.60413	1413.75293	104.02717	1510.36389	1286.26550	-113.16563	1366.76013	1496.26770	240.08249	1383.71069	1493.53442	54.87383	1248.89392	1375.17358	64.01964	1430.98096	1542.39856	-263.14709	1074.87866	1451.95557	361.88950	1050.83716	1514.86401	-328.87650	948.50079	1301.61877	359.38361	881.91687	1362.23584	-35.16378	886.15656	1428.28845				92.18692	978.01666	1626.54993	-47.30642	487.44427	1346.70447	209.60820	477.17566	1440.37891	4.68525	232.66045	1560.36816	207.45944	148.69164	1522.89429	
75	0.740	-26.31555	1440.85144	1247.30908	61.40633	1657.24109	1436.61670	-72.34232	1567.37817	1404.33838	102.52875	1510.47327	1276.78137	-112.91401	1367.03821	1488.78308	240.52060	1383.77905	1483.13635	54.65164	1249.66846	1366.90271	64.80495	1431.28528	1534.06445	-262.43250	1074.75562	1446.71631	362.58466	1050.69812	1503.77563	-329.48532	947.35779	1296.69727	358.63898	882.94794	1350.69580	-35.39841	886.68744	1421.73804				93.01545	978.38409	1618.85681	-47.32893	490.56805	1332.76868	210.00058	476.92639	1436.73657	5.52517	223.11504	1531.76501	207.09148	148.75023	1522.55859	
76	0.750	-27.38718	1439.77332	1238.78723	60.90562	1657.21143	1427.68298	-72.66949	1567.57056	1394.89600	105.19601	1511.17603	1268.17712	-112.82984	1367.15735	1481.49951	240.29150	1384.15576	1473.39221	54.13118	1249.50732	1358.06458	65.22166	1431.45801	1524.51855	-262.50385	1074.37878	1441.88806	363.78989	1051.57935	1492.71741	-330.37262	946.74969	1292.50696	358.34607	883.66791	1338.80396	-35.53800	887.74957	1413.48071				93.97069	978.81830	1610.52100	-46.68594	492.14609	1318.56921	210.20834	476.24399	1433.03687	5.52000	213.82422	1502.64453	207.08934	148.79507	1522.34253	
77	0.760	-28.42121	1439.47852	1230.87622	60.82466	1656.91846	1418.06860	-73.38162	1567.12976	1387.32617	103.96574	1510.66016	1258.90002	-112.76122	1367.39453	1474.33887	240.56651	1384.02258	1462.78796	53.19412	1249.39014	1349.65491	65.62562	1431.30969	1515.91211	-262.00739	1074.02417	1436.56128	363.47800	1050.94019	1481.28113	-330.38901	945.14850	1287.79089	357.22095	884.33246	1327.25610	-35.52305	888.23615	1403.35315				95.30137	978.72449	1601.05200	-46.95466	493.93707	1306.34204	209.60085	475.42877	1431.08179	5.67829	204.23985	1473.30164	206.61220	149.07263	1521.99817	
78	0.770	-29.93525	1438.05151	1222.23218	60.14077	1657.70532	1409.30640	-73.69148	1566.81702	1378.99133	100.72752	1508.63293	1247.38477	-112.44766	1367.00049	1466.84387	240.72067	1383.91748	1452.92908	52.40047	1249.24719	1340.58655	66.64510	1431.15381	1506.15051	-261.26392	1073.12622	1431.46387	363.77151	1051.19971	1470.25330	-331.09985	943.97845	1283.25623	356.95905	884.54614	1315.48267	-36.48858	888.81311	1396.49158				95.43053	978.38770	1592.36499	-47.02043	495.57343	1294.58813	209.22620	475.02124	1427.18420	4.79080	195.44855	1443.35559	205.90401	148.76308	1522.02966	
79	0.780	-31.51094	1438.18420	1213.25330	60.20052	1656.73999	1399.41943	-74.03915	1565.96497	1370.01355	102.35709	1509.38940	1240.32959	-112.59079	1366.95984	1462.37854	240.43971	1383.50110	1442.46167	52.12865	1248.77478	1331.70874	66.62505	1430.96899	1496.82678	-261.11987	1071.98047	1426.47839	364.14218	1051.42395	1458.89941	-330.90985	942.17151	1279.82715	355.77115	884.36230	1304.49231	-36.96546	887.61798	1388.23291				96.51819	978.48370	1585.01208	-47.35707	496.87192	1284.37634	209.22462	473.87421	1424.79480	2.87010	187.10300	1413.59875	205.88422	148.77481	1521.75024	
80	0.790	-32.19764	1436.41589	1206.04590	59.84296	1655.76294	1389.52063	-74.34388	1566.42871	1365.41577	99.25343	1507.28491	1229.84973	-112.66571	1366.59619	1453.14087	240.51993	1382.80237	1432.70959	50.44769	1248.38586	1322.82922	66.97874	1430.48218	1488.25366	-260.37833	1070.99146	1421.04602	364.70667	1050.54688	1448.20679	-331.47672	940.37268	1275.50366	354.49619	884.87122	1292.25525	-37.59897	888.96991	1379.19141				95.76640	977.80829	1575.96313	-47.34560	497.47955	1274.41370	208.92570	473.44141	1421.16370	1.31736	179.56755	1383.61316	205.34819	149.00932	1521.07092	
81	0.800	-33.44567	1435.82715	1198.02368	59.35614	1655.58960	1380.54541	-75.31936	1565.72522	1357.16077	97.79645	1506.07397	1220.41687	-112.61417	1365.52502	1444.88306	240.24178	1382.23047	1422.22449	49.98047	1247.40527	1314.39270	67.29700	1429.66040	1479.25488	-260.31671	1069.51904	1415.92139	363.98108	1049.72217	1436.15198	-331.20667	937.72925	1271.43469	352.32138	884.62128	1280.59534	-38.18986	887.72546	1372.24487				96.17793	976.58093	1567.69214	-46.74680	497.08636	1264.66516	208.28145	472.51990	1418.72144	-1.06215	173.12340	1354.12927	205.02936	148.78711	1520.57361	
82	0.810	-35.31356	1434.29224	1189.11658	59.33786	1653.97656	1370.34912	-76.14503	1564.88000	1348.87244	96.72991	1504.24768	1210.42493	-112.56619	1364.68591	1437.98560	240.11887	1381.09155	1411.37317	49.26423	1246.49512	1305.25342	68.18797	1429.00635	1470.40735	-259.63467	1067.69995	1410.64844	364.41376	1048.84363	1425.64539	-331.88519	935.36847	1266.96179	351.30124	883.49829	1269.51501	-38.55119	886.94501	1361.57690				95.71746	976.17688	1559.14868	-46.38471	496.66342	1256.29993	207.91460	471.46545	1415.09314	-3.47481	167.23581	1325.47363	204.85643	148.91212	1519.94568	
83	0.820	-36.90772	1432.69360	1181.02478	58.58507	1653.12488	1361.61316	-76.29091	1563.46960	1340.62378	95.86337	1503.86597	1201.44531	-112.58797	1363.84241	1432.30261	240.03018	1379.78503	1400.80127	47.61926	1244.59277	1297.77991	67.97164	1428.09009	1462.03235	-259.75775	1066.30139	1405.37817	364.80042	1047.74487	1415.22546	-332.06686	932.92572	1262.85889	349.72266	883.26367	1258.25574	-39.05387	885.82996	1354.21301				95.39535	975.21344	1549.95825	-46.45218	495.65323	1248.92932	207.28429	470.86194	1412.27905	-6.50231	163.10666	1296.71680	204.47968	149.12131	1518.93787	
